<svg width="275" height="100" viewBox="0 0 275 100" fill="none" xmlns="http://www.w3.org/2000/svg">
<path fill-rule="evenodd" clip-rule="evenodd" d="M110.336 50L60.3359 100V74.2549L84.5908 50L60.3359 25.7441V0L110.336 50Z" fill="#dc2627"/>
<path d="M0 50L49.9316 99.9316V74.1865L25.7451 50L49.9316 25.8125V0.0683594L0 50ZM110.266 50.0684L110.334 50L110.266 49.9316V50.0684Z" fill="#dc2627"/>
<path d="M274.504 95.3672V99.8157H256.379V73.7129H274.173V78.1614H261.452V84.4481H272.445V88.5658H261.452V95.3672H274.504Z" fill="white"/>
<path d="M231.929 99.8157V73.7129H243.473C244.674 73.7129 245.777 73.958 246.782 74.4482C247.811 74.9384 248.693 75.6001 249.429 76.4335C250.188 77.2668 250.764 78.1982 251.157 79.2276C251.573 80.257 251.782 81.3109 251.782 82.3893C251.782 83.4923 251.586 84.5584 251.193 85.5878C250.826 86.5927 250.287 87.4751 249.576 88.2349C248.865 88.9947 248.032 89.5829 247.076 89.9996L253.032 99.8157H247.443L242.076 91.0658H237.002V99.8157H231.929ZM237.002 86.6172H243.363C244 86.6172 244.563 86.4334 245.054 86.0658C245.544 85.6736 245.936 85.1589 246.23 84.5217C246.524 83.8844 246.671 83.1736 246.671 82.3893C246.671 81.556 246.5 80.833 246.157 80.2202C245.813 79.583 245.372 79.0805 244.833 78.7129C244.318 78.3452 243.755 78.1614 243.142 78.1614H237.002V86.6172Z" fill="white"/>
<path d="M215.422 99.9995C213.339 99.9995 211.562 99.6564 210.091 98.9701C208.645 98.2593 207.469 97.2912 206.562 96.0657C205.679 94.8402 205.03 93.4554 204.613 91.9113C204.197 90.3427 203.988 88.7128 203.988 87.0216V73.7129H209.062V87.0216C209.062 88.1001 209.16 89.154 209.356 90.1834C209.577 91.1883 209.932 92.0952 210.422 92.904C210.912 93.7128 211.562 94.35 212.371 94.8157C213.179 95.2814 214.184 95.5143 215.385 95.5143C216.611 95.5143 217.628 95.2814 218.437 94.8157C219.27 94.3255 219.92 93.676 220.385 92.8672C220.875 92.0584 221.231 91.1515 221.451 90.1466C221.672 89.1172 221.782 88.0756 221.782 87.0216V73.7129H226.819V87.0216C226.819 88.8109 226.599 90.4898 226.157 92.0584C225.741 93.627 225.067 95.0118 224.135 96.2128C223.228 97.3892 222.052 98.3206 220.606 99.0069C219.16 99.6686 217.432 99.9995 215.422 99.9995Z" fill="white"/>
<path d="M201.116 78.1614H192.77V99.8157H187.733V78.1614H179.388V73.7129H201.116V78.1614Z" fill="white"/>
<path d="M165.087 99.9995C163.004 99.9995 161.227 99.6564 159.756 98.9701C158.31 98.2593 157.134 97.2912 156.227 96.0657C155.344 94.8402 154.695 93.4554 154.278 91.9113C153.862 90.3427 153.653 88.7128 153.653 87.0216V73.7129H158.727V87.0216C158.727 88.1001 158.825 89.154 159.021 90.1834C159.242 91.1883 159.597 92.0952 160.087 92.904C160.577 93.7128 161.227 94.35 162.036 94.8157C162.844 95.2814 163.849 95.5143 165.05 95.5143C166.276 95.5143 167.293 95.2814 168.102 94.8157C168.935 94.3255 169.585 93.676 170.05 92.8672C170.541 92.0584 170.896 91.1515 171.117 90.1466C171.337 89.1172 171.447 88.0756 171.447 87.0216V73.7129H176.484V87.0216C176.484 88.8109 176.264 90.4898 175.822 92.0584C175.406 93.627 174.732 95.0118 173.8 96.2128C172.893 97.3892 171.717 98.3206 170.271 99.0069C168.825 99.6686 167.097 99.9995 165.087 99.9995Z" fill="white"/>
<path d="M132.91 99.8157V73.7129H150.447V78.1614H137.984V84.8893H148.351V89.0069H137.984V99.8157H132.91Z" fill="white"/>
<path d="M210.854 63.0515V36.9487H222.399C223.6 36.9487 224.702 37.1938 225.707 37.684C226.737 38.1742 227.619 38.836 228.354 39.6693C229.114 40.5026 229.69 41.434 230.082 42.4634C230.499 43.4928 230.707 44.5467 230.707 45.6252C230.707 46.7281 230.511 47.7943 230.119 48.8237C229.752 49.8286 229.212 50.7109 228.502 51.4707C227.791 52.2305 226.957 52.8188 226.002 53.2354L231.957 63.0515H226.369L221.002 54.3016H215.928V63.0515H210.854ZM215.928 49.8531H222.288C222.926 49.8531 223.489 49.6693 223.979 49.3016C224.47 48.9095 224.862 48.3948 225.156 47.7575C225.45 47.1203 225.597 46.4095 225.597 45.6252C225.597 44.7918 225.426 44.0688 225.082 43.4561C224.739 42.8188 224.298 42.3164 223.759 41.9487C223.244 41.5811 222.68 41.3972 222.068 41.3972H215.928V49.8531Z" fill="white"/>
<path d="M194.347 63.2354C192.264 63.2354 190.487 62.8922 189.016 62.206C187.57 61.4952 186.393 60.527 185.487 59.3016C184.604 58.0761 183.955 56.6913 183.538 55.1472C183.121 53.5786 182.913 51.9487 182.913 50.2575V36.9487H187.987V50.2575C187.987 51.3359 188.085 52.3898 188.281 53.4192C188.501 54.4241 188.857 55.331 189.347 56.1398C189.837 56.9486 190.487 57.5859 191.295 58.0516C192.104 58.5173 193.109 58.7501 194.31 58.7501C195.536 58.7501 196.553 58.5173 197.362 58.0516C198.195 57.5614 198.844 56.9119 199.31 56.103C199.8 55.2942 200.156 54.3874 200.376 53.3825C200.597 52.3531 200.707 51.3114 200.707 50.2575V36.9487H205.744V50.2575C205.744 52.0467 205.523 53.7256 205.082 55.2942C204.665 56.8629 203.991 58.2477 203.06 59.4486C202.153 60.6251 200.977 61.5565 199.531 62.2427C198.085 62.9045 196.357 63.2354 194.347 63.2354Z" fill="white"/>
<path d="M166.632 63.2346C164.72 63.2346 162.98 62.867 161.411 62.1317C159.867 61.3964 158.531 60.4038 157.404 59.1538C156.301 57.8793 155.443 56.4577 154.83 54.8891C154.218 53.2959 153.911 51.666 153.911 49.9994C153.911 48.2592 154.23 46.6048 154.867 45.0362C155.529 43.443 156.423 42.0337 157.551 40.8083C158.703 39.5583 160.051 38.5779 161.595 37.8671C163.164 37.1318 164.879 36.7642 166.742 36.7642C168.629 36.7642 170.345 37.1441 171.889 37.9039C173.458 38.6637 174.793 39.6808 175.896 40.9553C176.999 42.2298 177.857 43.6514 178.47 45.22C179.083 46.7886 179.389 48.4063 179.389 50.0729C179.389 51.7886 179.07 53.443 178.433 55.0361C177.796 56.6047 176.901 58.0141 175.749 59.2641C174.622 60.4895 173.274 61.4577 171.705 62.1684C170.161 62.8792 168.47 63.2346 166.632 63.2346ZM159.058 49.9994C159.058 51.1268 159.23 52.2175 159.573 53.2714C159.916 54.3254 160.406 55.269 161.043 56.1023C161.705 56.9111 162.502 57.5606 163.433 58.0508C164.389 58.5165 165.467 58.7494 166.668 58.7494C167.894 58.7494 168.985 58.5043 169.941 58.0141C170.896 57.4994 171.693 56.8253 172.33 55.992C172.967 55.1342 173.445 54.1905 173.764 53.1611C174.107 52.1072 174.279 51.0533 174.279 49.9994C174.279 48.8719 174.095 47.7935 173.727 46.7641C173.384 45.7102 172.882 44.7788 172.22 43.97C171.583 43.1367 170.786 42.4872 169.83 42.0215C168.899 41.5313 167.845 41.2862 166.668 41.2862C165.418 41.2862 164.316 41.5435 163.36 42.0583C162.428 42.5484 161.644 43.2102 161.007 44.0435C160.369 44.8769 159.879 45.8082 159.536 46.8376C159.217 47.867 159.058 48.921 159.058 49.9994Z" fill="white"/>
<path d="M135.851 36.9487L142.284 49.2281L148.829 36.9487H154.306L144.821 53.9339V63.0515H139.784V53.8604L130.336 36.9487H135.851Z" fill="white"/>
<path d="M230.02 21.8389V26.2874H211.896V0.18457H229.69V4.63308H216.969V10.9198H227.962V15.0374H216.969V21.8389H230.02Z" fill="white"/>
<path d="M185.578 26.2874V0.18457H195.063C197.907 0.18457 200.284 0.772803 202.196 1.94927C204.107 3.10122 205.541 4.66984 206.497 6.65513C207.453 8.6159 207.931 10.7973 207.931 13.1992C207.931 15.8463 207.404 18.1502 206.35 20.1109C205.296 22.0717 203.801 23.5913 201.865 24.6697C199.953 25.7482 197.686 26.2874 195.063 26.2874H185.578ZM202.821 13.1992C202.821 11.508 202.514 10.0252 201.902 8.75071C201.289 7.45169 200.407 6.4468 199.255 5.73601C198.103 5.00072 196.706 4.63308 195.063 4.63308H190.652V21.8389H195.063C196.73 21.8389 198.139 21.4712 199.291 20.7359C200.443 19.9761 201.313 18.9467 201.902 17.6477C202.514 16.3242 202.821 14.8414 202.821 13.1992Z" fill="white"/>
<path d="M168.929 26.4705C167.017 26.4705 165.277 26.1028 163.708 25.3675C162.164 24.6322 160.828 23.6396 159.701 22.3896C158.598 21.1151 157.74 19.6935 157.127 18.1249C156.514 16.5318 156.208 14.9019 156.208 13.2352C156.208 11.495 156.527 9.84064 157.164 8.27202C157.826 6.67889 158.72 5.26958 159.848 4.0441C161 2.7941 162.348 1.81372 163.892 1.10293C165.46 0.367644 167.176 0 169.039 0C170.926 0 172.642 0.3799 174.186 1.1397C175.755 1.8995 177.09 2.91665 178.193 4.19116C179.296 5.46566 180.154 6.88722 180.767 8.45584C181.38 10.0245 181.686 11.6421 181.686 13.3088C181.686 15.0244 181.367 16.6788 180.73 18.272C180.093 19.8406 179.198 21.2499 178.046 22.4999C176.919 23.7254 175.571 24.6935 174.002 25.4043C172.458 26.1151 170.767 26.4705 168.929 26.4705ZM161.355 13.2352C161.355 14.3627 161.527 15.4534 161.87 16.5073C162.213 17.5612 162.703 18.5048 163.34 19.3381C164.002 20.147 164.799 20.7965 165.73 21.2867C166.686 21.7523 167.764 21.9852 168.965 21.9852C170.191 21.9852 171.282 21.7401 172.237 21.2499C173.193 20.7352 173.99 20.0612 174.627 19.2278C175.264 18.37 175.742 17.4264 176.061 16.397C176.404 15.3431 176.576 14.2891 176.576 13.2352C176.576 12.1078 176.392 11.0294 176.024 9.99995C175.681 8.94603 175.179 8.01467 174.517 7.20585C173.88 6.37252 173.083 5.72301 172.127 5.25733C171.196 4.76713 170.142 4.52204 168.965 4.52204C167.715 4.52204 166.612 4.77939 165.657 5.29409C164.725 5.78429 163.941 6.44605 163.304 7.27938C162.666 8.11271 162.176 9.04407 161.833 10.0735C161.514 11.1029 161.355 12.1568 161.355 13.2352Z" fill="white"/>
<path d="M131.329 13.0522C131.329 11.4591 131.611 9.90275 132.175 8.38315C132.763 6.83904 133.609 5.44198 134.711 4.19199C135.814 2.91749 137.162 1.91259 138.756 1.1773C140.349 0.417498 142.162 0.0375977 144.197 0.0375977C146.599 0.0375977 148.67 0.564557 150.41 1.61847C152.175 2.67239 153.486 4.04493 154.344 5.7361L150.447 8.41991C150.006 7.43952 149.43 6.66747 148.719 6.10374C148.008 5.51551 147.248 5.1111 146.439 4.89052C145.631 4.64542 144.834 4.52287 144.05 4.52287C142.775 4.52287 141.66 4.78022 140.704 5.29493C139.773 5.80963 138.988 6.48365 138.351 7.31697C137.714 8.1503 137.236 9.08167 136.917 10.1111C136.623 11.1405 136.476 12.1699 136.476 13.1993C136.476 14.3513 136.66 15.4664 137.028 16.5449C137.395 17.5988 137.91 18.5424 138.572 19.3757C139.258 20.1846 140.067 20.8341 140.998 21.3243C141.954 21.7899 142.996 22.0228 144.123 22.0228C144.932 22.0228 145.753 21.888 146.586 21.6184C147.42 21.3488 148.192 20.9199 148.903 20.3316C149.613 19.7434 150.165 18.9836 150.557 18.0522L154.711 20.4419C154.197 21.7409 153.351 22.8439 152.175 23.7507C151.023 24.6576 149.724 25.3439 148.278 25.8095C146.832 26.2752 145.398 26.5081 143.976 26.5081C142.113 26.5081 140.41 26.1282 138.866 25.3684C137.322 24.584 135.986 23.5546 134.859 22.2801C133.756 20.9811 132.885 19.5351 132.248 17.9419C131.635 16.3243 131.329 14.6944 131.329 13.0522Z" fill="white"/>
</svg>
