<svg width="235" height="100" viewBox="0 0 235 100" fill="none" xmlns="http://www.w3.org/2000/svg">
<path d="M20.0225 100H0V79.9775H19.9082V59.9541H39.9316V79.9775H20.0225V100ZM59.9541 59.9541H39.9316V39.9316H59.9541V59.9541ZM20.0225 19.9082H39.9316V39.9316H19.9082V20.0234H0V0H20.0225V19.9082Z" fill="#40D584"/>
<path d="M234.122 95.3672V99.8157H215.997V73.7129H233.791V78.1614H221.071V84.4481H232.063V88.5658H221.071V95.3672H234.122Z" fill="white"/>
<path d="M191.547 99.8157V73.7129H203.091C204.292 73.7129 205.395 73.958 206.4 74.4482C207.429 74.9384 208.312 75.6001 209.047 76.4335C209.807 77.2668 210.383 78.1982 210.775 79.2276C211.191 80.257 211.4 81.3109 211.4 82.3893C211.4 83.4923 211.204 84.5584 210.812 85.5878C210.444 86.5927 209.905 87.4751 209.194 88.2349C208.483 88.9947 207.65 89.5829 206.694 89.9996L212.65 99.8157H207.062L201.694 91.0658H196.62V99.8157H191.547ZM196.62 86.6172H202.981C203.618 86.6172 204.182 86.4334 204.672 86.0658C205.162 85.6736 205.554 85.1589 205.848 84.5217C206.142 83.8844 206.289 83.1736 206.289 82.3893C206.289 81.556 206.118 80.833 205.775 80.2202C205.432 79.583 204.99 79.0805 204.451 78.7129C203.937 78.3452 203.373 78.1614 202.76 78.1614H196.62V86.6172Z" fill="white"/>
<path d="M175.04 99.9995C172.957 99.9995 171.18 99.6564 169.709 98.9701C168.263 98.2593 167.087 97.2912 166.18 96.0657C165.298 94.8402 164.648 93.4554 164.231 91.9113C163.815 90.3427 163.606 88.7128 163.606 87.0216V73.7129H168.68V87.0216C168.68 88.1001 168.778 89.154 168.974 90.1834C169.195 91.1883 169.55 92.0952 170.04 92.904C170.53 93.7128 171.18 94.35 171.989 94.8157C172.798 95.2814 173.802 95.5143 175.003 95.5143C176.229 95.5143 177.246 95.2814 178.055 94.8157C178.888 94.3255 179.538 93.676 180.003 92.8672C180.494 92.0584 180.849 91.1515 181.07 90.1466C181.29 89.1172 181.401 88.0756 181.401 87.0216V73.7129H186.437V87.0216C186.437 88.8109 186.217 90.4898 185.776 92.0584C185.359 93.627 184.685 95.0118 183.753 96.2128C182.847 97.3892 181.67 98.3206 180.224 99.0069C178.778 99.6686 177.05 99.9995 175.04 99.9995Z" fill="white"/>
<path d="M160.734 78.1614H152.388V99.8157H147.351V78.1614H139.006V73.7129H160.734V78.1614Z" fill="white"/>
<path d="M124.705 99.9995C122.622 99.9995 120.845 99.6564 119.374 98.9701C117.928 98.2593 116.752 97.2912 115.845 96.0657C114.963 94.8402 114.313 93.4554 113.896 91.9113C113.48 90.3427 113.271 88.7128 113.271 87.0216V73.7129H118.345V87.0216C118.345 88.1001 118.443 89.154 118.639 90.1834C118.86 91.1883 119.215 92.0952 119.705 92.904C120.195 93.7128 120.845 94.35 121.654 94.8157C122.463 95.2814 123.468 95.5143 124.669 95.5143C125.894 95.5143 126.911 95.2814 127.72 94.8157C128.553 94.3255 129.203 93.676 129.669 92.8672C130.159 92.0584 130.514 91.1515 130.735 90.1466C130.955 89.1172 131.066 88.0756 131.066 87.0216V73.7129H136.102V87.0216C136.102 88.8109 135.882 90.4898 135.441 92.0584C135.024 93.627 134.35 95.0118 133.418 96.2128C132.512 97.3892 131.335 98.3206 129.889 99.0069C128.443 99.6686 126.715 99.9995 124.705 99.9995Z" fill="white"/>
<path d="M92.5283 99.8157V73.7129H110.065V78.1614H97.6018V84.8893H107.969V89.0069H97.6018V99.8157H92.5283Z" fill="white"/>
<path d="M170.473 63.0515V36.9487H182.017C183.218 36.9487 184.321 37.1938 185.326 37.684C186.355 38.1742 187.237 38.836 187.973 39.6693C188.732 40.5026 189.308 41.434 189.701 42.4634C190.117 43.4928 190.326 44.5467 190.326 45.6252C190.326 46.7281 190.129 47.7943 189.737 48.8237C189.37 49.8286 188.83 50.7109 188.12 51.4707C187.409 52.2305 186.576 52.8188 185.62 53.2354L191.576 63.0515H185.987L180.62 54.3016H175.546V63.0515H170.473ZM175.546 49.8531H181.906C182.544 49.8531 183.107 49.6693 183.598 49.3016C184.088 48.9095 184.48 48.3948 184.774 47.7575C185.068 47.1203 185.215 46.4095 185.215 45.6252C185.215 44.7918 185.044 44.0688 184.701 43.4561C184.357 42.8188 183.916 42.3164 183.377 41.9487C182.862 41.5811 182.299 41.3972 181.686 41.3972H175.546V49.8531Z" fill="white"/>
<path d="M153.965 63.2354C151.882 63.2354 150.105 62.8922 148.634 62.206C147.188 61.4952 146.012 60.527 145.105 59.3016C144.222 58.0761 143.573 56.6913 143.156 55.1472C142.74 53.5786 142.531 51.9487 142.531 50.2575V36.9487H147.605V50.2575C147.605 51.3359 147.703 52.3898 147.899 53.4192C148.119 54.4241 148.475 55.331 148.965 56.1398C149.455 56.9486 150.105 57.5859 150.914 58.0516C151.722 58.5173 152.727 58.7501 153.928 58.7501C155.154 58.7501 156.171 58.5173 156.98 58.0516C157.813 57.5614 158.463 56.9119 158.928 56.103C159.418 55.2942 159.774 54.3874 159.994 53.3825C160.215 52.3531 160.325 51.3114 160.325 50.2575V36.9487H165.362V50.2575C165.362 52.0467 165.141 53.7256 164.7 55.2942C164.284 56.8629 163.61 58.2477 162.678 59.4486C161.771 60.6251 160.595 61.5565 159.149 62.2427C157.703 62.9045 155.975 63.2354 153.965 63.2354Z" fill="white"/>
<path d="M126.25 63.2346C124.338 63.2346 122.598 62.867 121.029 62.1317C119.485 61.3964 118.149 60.4038 117.022 59.1538C115.919 57.8793 115.061 56.4577 114.448 54.8891C113.836 53.2959 113.529 51.666 113.529 49.9994C113.529 48.2592 113.848 46.6048 114.485 45.0362C115.147 43.443 116.042 42.0337 117.169 40.8083C118.321 39.5583 119.669 38.5779 121.213 37.8671C122.782 37.1318 124.497 36.7642 126.36 36.7642C128.247 36.7642 129.963 37.1441 131.507 37.9039C133.076 38.6637 134.412 39.6808 135.515 40.9553C136.617 42.2298 137.475 43.6514 138.088 45.22C138.701 46.7886 139.007 48.4063 139.007 50.0729C139.007 51.7886 138.689 53.443 138.051 55.0361C137.414 56.6047 136.519 58.0141 135.367 59.2641C134.24 60.4895 132.892 61.4577 131.323 62.1684C129.779 62.8792 128.088 63.2346 126.25 63.2346ZM118.676 49.9994C118.676 51.1268 118.848 52.2175 119.191 53.2714C119.534 54.3254 120.024 55.269 120.662 56.1023C121.323 56.9111 122.12 57.5606 123.051 58.0508C124.007 58.5165 125.086 58.7494 126.287 58.7494C127.512 58.7494 128.603 58.5043 129.559 58.0141C130.515 57.4994 131.311 56.8253 131.948 55.992C132.586 55.1342 133.064 54.1905 133.382 53.1611C133.725 52.1072 133.897 51.0533 133.897 49.9994C133.897 48.8719 133.713 47.7935 133.345 46.7641C133.002 45.7102 132.5 44.7788 131.838 43.97C131.201 43.1367 130.404 42.4872 129.448 42.0215C128.517 41.5313 127.463 41.2862 126.287 41.2862C125.037 41.2862 123.934 41.5435 122.978 42.0583C122.046 42.5484 121.262 43.2102 120.625 44.0435C119.988 44.8769 119.497 45.8082 119.154 46.8376C118.836 47.867 118.676 48.921 118.676 49.9994Z" fill="white"/>
<path d="M95.4688 36.9487L101.903 49.2281L108.447 36.9487H113.925L104.439 53.9339V63.0515H99.4026V53.8604L89.9541 36.9487H95.4688Z" fill="white"/>
<path d="M189.639 21.8389V26.2874H171.514V0.18457H189.308V4.63308H176.587V10.9198H187.58V15.0374H176.587V21.8389H189.639Z" fill="white"/>
<path d="M145.196 26.2874V0.18457H154.682C157.525 0.18457 159.902 0.772803 161.814 1.94927C163.726 3.10122 165.159 4.66984 166.115 6.65513C167.071 8.6159 167.549 10.7973 167.549 13.1992C167.549 15.8463 167.022 18.1502 165.968 20.1109C164.914 22.0717 163.419 23.5913 161.483 24.6697C159.571 25.7482 157.304 26.2874 154.682 26.2874H145.196ZM162.439 13.1992C162.439 11.508 162.133 10.0252 161.52 8.75071C160.907 7.45169 160.025 6.4468 158.873 5.73601C157.721 5.00072 156.324 4.63308 154.682 4.63308H150.27V21.8389H154.682C156.348 21.8389 157.758 21.4712 158.909 20.7359C160.061 19.9761 160.932 18.9467 161.52 17.6477C162.133 16.3242 162.439 14.8414 162.439 13.1992Z" fill="white"/>
<path d="M128.547 26.4705C126.635 26.4705 124.895 26.1028 123.326 25.3675C121.782 24.6322 120.446 23.6396 119.319 22.3896C118.216 21.1151 117.358 19.6935 116.745 18.1249C116.133 16.5318 115.826 14.9019 115.826 13.2352C115.826 11.495 116.145 9.84064 116.782 8.27202C117.444 6.67889 118.338 5.26958 119.466 4.0441C120.618 2.7941 121.966 1.81372 123.51 1.10293C125.079 0.367644 126.794 0 128.657 0C130.544 0 132.26 0.3799 133.804 1.1397C135.373 1.8995 136.708 2.91665 137.811 4.19116C138.914 5.46566 139.772 6.88722 140.385 8.45584C140.998 10.0245 141.304 11.6421 141.304 13.3088C141.304 15.0244 140.985 16.6788 140.348 18.272C139.711 19.8406 138.816 21.2499 137.664 22.4999C136.537 23.7254 135.189 24.6935 133.62 25.4043C132.076 26.1151 130.385 26.4705 128.547 26.4705ZM120.973 13.2352C120.973 14.3627 121.145 15.4534 121.488 16.5073C121.831 17.5612 122.321 18.5048 122.959 19.3381C123.62 20.147 124.417 20.7965 125.348 21.2867C126.304 21.7523 127.383 21.9852 128.583 21.9852C129.809 21.9852 130.9 21.7401 131.856 21.2499C132.811 20.7352 133.608 20.0612 134.245 19.2278C134.882 18.37 135.36 17.4264 135.679 16.397C136.022 15.3431 136.194 14.2891 136.194 13.2352C136.194 12.1078 136.01 11.0294 135.642 9.99995C135.299 8.94603 134.797 8.01467 134.135 7.20585C133.498 6.37252 132.701 5.72301 131.745 5.25733C130.814 4.76713 129.76 4.52204 128.583 4.52204C127.333 4.52204 126.231 4.77939 125.275 5.29409C124.343 5.78429 123.559 6.44605 122.922 7.27938C122.284 8.11271 121.794 9.04407 121.451 10.0735C121.133 11.1029 120.973 12.1568 120.973 13.2352Z" fill="white"/>
<path d="M90.9473 13.0522C90.9473 11.4591 91.2291 9.90275 91.7929 8.38315C92.3811 6.83904 93.2267 5.44198 94.3296 4.19199C95.4325 2.91749 96.7806 1.91259 98.3737 1.1773C99.9669 0.417498 101.781 0.0375977 103.815 0.0375977C106.217 0.0375977 108.288 0.564557 110.028 1.61847C111.793 2.67239 113.104 4.04493 113.962 5.7361L110.065 8.41991C109.624 7.43952 109.048 6.66747 108.337 6.10374C107.626 5.51551 106.866 5.1111 106.058 4.89052C105.249 4.64542 104.452 4.52287 103.668 4.52287C102.393 4.52287 101.278 4.78022 100.322 5.29493C99.3909 5.80963 98.6066 6.48365 97.9693 7.31697C97.3321 8.1503 96.8541 9.08167 96.5355 10.1111C96.2414 11.1405 96.0943 12.1699 96.0943 13.1993C96.0943 14.3513 96.2781 15.4664 96.6458 16.5449C97.0134 17.5988 97.5281 18.5424 98.1899 19.3757C98.8762 20.1846 99.685 20.8341 100.616 21.3243C101.572 21.7899 102.614 22.0228 103.741 22.0228C104.55 22.0228 105.371 21.888 106.205 21.6184C107.038 21.3488 107.81 20.9199 108.521 20.3316C109.232 19.7434 109.783 18.9836 110.175 18.0522L114.33 20.4419C113.815 21.7409 112.969 22.8439 111.793 23.7507C110.641 24.6576 109.342 25.3439 107.896 25.8095C106.45 26.2752 105.016 26.5081 103.594 26.5081C101.732 26.5081 100.028 26.1282 98.484 25.3684C96.9399 24.584 95.6041 23.5546 94.4767 22.2801C93.3737 20.9811 92.5036 19.5351 91.8664 17.9419C91.2536 16.3243 90.9473 14.6944 90.9473 13.0522Z" fill="white"/>
</svg>
